<?xml version="1.0" encoding="utf-8"?>
<!-- Generator: Adobe Illustrator 16.0.0, SVG Export Plug-In . SVG Version: 6.00 Build 0)  -->
<!DOCTYPE svg PUBLIC "-//W3C//DTD SVG 1.1//EN" "http://www.w3.org/Graphics/SVG/1.1/DTD/svg11.dtd">
<svg version="1.1" id="Layer_1" xmlns="http://www.w3.org/2000/svg" xmlns:xlink="http://www.w3.org/1999/xlink" x="0px" y="0px"
	 width="794.537px" height="359.408px" viewBox="0 0 794.537 359.408" enable-background="new 0 0 794.537 359.408"
	 xml:space="preserve">
<g opacity="0.15">
	<g>
		<g>
			<path fill="#FFFFFF" d="M402.829,111.967l0.155-49.873l52.8,0.088L455.65,112.1L402.829,111.967z M138.493,304.647l-58.399-0.19
				l0,0c0,0-0.382,0.054-0.926,0.03c-3.906,0.023-21.418-5.065-21.338-22.004l0.552-221.735L0.602,60.529L0,292.937
				c0,0,1.788,64.755,70.031,64.971l126.112,0.332l0.763-297.232l-72.061-0.176l-0.155,47.405l14.229,11.535L138.493,304.647z
				 M455.02,358.504l0.661-213.374h-61.254l-0.075,41.413l8.436,8.323l-0.446,163.539L455.02,358.504 M685.467,298.673
				c-0.023,8.707,7,15.765,15.655,15.791l25.273,0.056c8.701,0.095,15.86-6.988,15.829-15.691l0.084-99.009
				c0.049-8.704-7.147-15.532-15.879-15.564l-25.198-0.019c-8.738-0.06-15.655,6.7-15.685,15.446L685.467,298.673z M633.371,192.918
				c0.075-29.123,23.599-52.443,52.633-52.363l56.066,0.158c28.973,0.053,52.538,23.531,52.467,52.588l-0.262,113.701
				c-0.046,29.091-23.68,52.437-52.656,52.406h-56.043c-29.056-0.049-52.572-23.77-52.489-52.803L633.371,192.918z"/>
			<path fill="#FFFFFF" d="M224.258,194.612l-8.278-8.318v-41.985h112.772c49.547,0,51.866,53.42,51.866,53.42v161.045h-61.724
				v-40.74l10.217-8.172V202.591c0-15.521-10.327-16.455-16.188-16.455c-0.495,0-7.791,0-7.791,0h-29.543v172.588h-51.332V194.612z"
				/>
			<path fill="#FFFFFF" d="M525.032,145.13c0.022,0,0.022,0,0.022,0h92.001v49.798H578.19l-7.994-8.563h-26.673
				c-18.121,0-16.842,18.665-16.842,18.665v86.585c0,23.94,12.262,25.446,16.971,25.446c1.116,0,2.098,0.153,2.098,0.153h73.96
				v41.509h-91.579c-48.931,0-53.006-48.746-53.006-48.746V200.126C475.125,145.633,523.167,145.13,525.032,145.13z"/>
		</g>
	</g>
	<polygon fill="#FFFFFF" points="158.869,0 106.459,0 66.461,36.372 118.881,36.372 	"/>
</g>
</svg>
