<?xml version="1.0" encoding="utf-8"?>
<!-- Generator: Adobe Illustrator 16.0.0, SVG Export Plug-In . SVG Version: 6.00 Build 0)  -->
<!DOCTYPE svg PUBLIC "-//W3C//DTD SVG 1.1//EN" "http://www.w3.org/Graphics/SVG/1.1/DTD/svg11.dtd">
<svg version="1.1" id="Isolation_Mode" xmlns="http://www.w3.org/2000/svg" xmlns:xlink="http://www.w3.org/1999/xlink" x="0px"
	 y="0px" width="173.693px" height="173.264px" viewBox="0 0 173.693 173.264" enable-background="new 0 0 173.693 173.264"
	 xml:space="preserve">
<circle opacity="0.2" cx="89.085" cy="88.655" r="84.608"/>
<circle fill="#FFFFFF" cx="82.942" cy="82.941" r="82.942"/>
<circle fill="#E8E4D8" cx="82.942" cy="82.941" r="72.104"/>
<g>
	<g>
		<path fill="#34AEA6" d="M52.003,74.384c0,2.856-0.183,5.964-0.547,9.318c-0.365,3.355-0.664,6.13-0.896,8.322
			c-0.233,2.192-0.514,4.467-0.845,6.825c-0.333,2.36-0.564,4.037-0.697,5.033l5.173-15.746l14.922-40.46h18.304l-29.446,70.332
			H34.296l3.084-70.332h16.414L52.003,74.384z"/>
		<path fill="#34AEA6" d="M113.582,70.059c0.53-1.989,0.928-3.531,1.194-4.625c0.264-1.094,0.397-2.072,0.397-2.935
			c0-1.194-0.382-2.139-1.144-2.835c-0.763-0.696-1.875-1.044-3.333-1.044c-2.322,0-3.864,0.698-4.625,2.092
			c-0.763,1.396-1.311,2.84-1.642,4.335c-0.333,1.496-0.497,2.74-0.497,3.737c0,1.197,0.231,2.176,0.696,2.939
			c0.463,0.765,1.442,1.727,2.935,2.889c1.492,1.163,2.602,2.01,3.333,2.542l6.765,5.28l2.785,2.392
			c1.657,1.461,2.868,2.924,3.631,4.385c0.761,1.461,1.144,3.255,1.144,5.38c0,0.864-0.035,1.545-0.1,2.042
			c-0.067,0.499-0.167,1.279-0.298,2.342c-0.134,1.063-0.515,2.806-1.144,5.23c-0.631,2.425-1.576,4.651-2.835,6.676
			c-1.26,2.027-2.869,3.654-4.825,4.882c-1.957,1.229-4.312,2.126-7.063,2.691c-2.753,0.564-5.819,0.847-9.202,0.847
			c-5.77,0-10.331-0.697-13.679-2.089c-3.35-1.393-5.521-3.166-6.516-5.322c-0.995-2.154-1.492-4.26-1.492-6.317
			c0-2.387,0.696-6.267,2.089-11.639l17.011,0.099c-0.597,2.124-1.079,3.964-1.442,5.521c-0.366,1.559-0.547,2.703-0.547,3.432
			c0,1.791,0.563,3.019,1.691,3.681c1.127,0.664,2.254,0.995,3.382,0.995c2.587,0,4.278-0.73,5.074-2.192
			c0.796-1.461,1.393-2.989,1.791-4.583c0.398-1.595,0.597-2.922,0.597-3.986c0-0.929-0.183-1.761-0.547-2.491
			c-0.365-0.731-1.278-1.677-2.736-2.84c-1.459-1.163-2.72-2.209-3.78-3.139l-4.576-3.388l-2.686-2.092
			c-2.255-1.727-3.864-3.372-4.825-4.932c-0.962-1.561-1.442-3.67-1.442-6.328c0-1.66,0.331-3.834,0.995-6.525
			c0.662-2.69,1.358-4.767,2.089-6.228c0.928-2.524,1.906-4.517,2.935-5.978c1.028-1.461,2.172-2.641,3.432-3.538
			c1.259-0.895,3.034-1.593,5.322-2.092c2.288-0.498,5.156-0.748,8.605-0.748l6.068,0.299c4.442,0.464,8.058,1.675,10.843,3.631
			c2.785,1.957,4.178,5.058,4.178,9.301c0,1.526-0.199,3.217-0.597,5.073c-0.398,1.857-0.796,3.582-1.194,5.173H113.582z"/>
	</g>
</g>
</svg>
