<?xml version="1.0" encoding="utf-8"?>
<!-- Generator: Adobe Illustrator 16.0.0, SVG Export Plug-In . SVG Version: 6.00 Build 0)  -->
<!DOCTYPE svg PUBLIC "-//W3C//DTD SVG 1.1//EN" "http://www.w3.org/Graphics/SVG/1.1/DTD/svg11.dtd">
<svg version="1.1" id="Isolation_Mode" xmlns="http://www.w3.org/2000/svg" xmlns:xlink="http://www.w3.org/1999/xlink" x="0px"
	 y="0px" width="165.883px" height="167.003px" viewBox="0 0 165.883 167.003" enable-background="new 0 0 165.883 167.003"
	 xml:space="preserve">
<g>
	<g id="XMLID_2_">
		<path fill="#FFFFFF" d="M83.767,0c45.353,0,82.116,36.764,82.116,82.117c0,45.353-36.764,82.116-82.116,82.116
			c-22.858,0-39.562-10.156-39.562-10.156L0,167.003l13.569-42.274c0,0-11.891-20.117-11.891-42.611C1.679,36.764,38.415,0,83.767,0
			z M152.733,82.117c0-38.106-30.859-68.967-68.966-68.967c-38.079,0-68.967,30.86-68.967,68.967
			c0,22.299,13.458,40.904,13.458,40.904l-8.785,24.509l26.299-7.862c0,0,16.899,11.416,37.995,11.416
			C121.874,151.084,152.733,120.195,152.733,82.117z"/>
		<path fill="#48B758" d="M83.767,13.15c38.106,0,68.966,30.86,68.966,68.967c0,38.078-30.859,68.967-68.966,68.967
			c-21.096,0-37.995-11.416-37.995-11.416l-26.299,7.862l8.785-24.509c0,0-13.458-18.605-13.458-40.904
			C14.8,44.011,45.688,13.15,83.767,13.15z"/>
	</g>
	<path fill="#FFFFFF" d="M52.841,47.691c0,0,2.218-1.405,3.375-1.405c1.156,0,6.468,0,6.468,0s1.734,0.302,2.531,2.108
		c0.797,1.808,6.25,14.621,6.656,15.61c0.406,0.988,1.465,3.434-0.234,5.624c-1.698,2.191-5.25,6.281-5.25,6.281
		s-1.406,1.266-0.188,3.281s5.505,8.665,11.11,13.688c5.604,5.022,12.469,8.718,15.89,9.843c3.423,1.125,4.172-0.375,5.484-2.063
		s5.391-6.843,5.391-6.843s1.407-2.063,4.172-0.797c2.767,1.265,16.219,7.781,16.219,7.781s1.641,0.281,1.734,2.109
		c0.094,1.827,1.219,7.298-3.656,12.561c-4.876,5.264-15.246,7.699-20.154,6.327c-4.91-1.373-21.144-5.619-31.73-15.492
		s-19.16-20.265-22.668-27.929c-3.507-7.664-3.313-12.21-3.117-14.354C45.069,61.881,46.195,51.949,52.841,47.691z"/>
</g>
</svg>
